<?xml version="1.0" standalone="no"?><!DOCTYPE svg PUBLIC "-//W3C//DTD SVG 1.1//EN" "http://www.w3.org/Graphics/SVG/1.1/DTD/svg11.dtd"><svg t="1557885925140" class="icon" style="" viewBox="0 0 1024 1024" version="1.1" xmlns="http://www.w3.org/2000/svg" p-id="6432" xmlns:xlink="http://www.w3.org/1999/xlink" width="200" height="200"><defs><style type="text/css"></style></defs><path d="M350.1568 672.2304l-11.6992-186.88h347.0848l-11.6992 186.88-8.32 133.12-5.12 81.6896a26.6752 26.6752 0 0 1-26.6496 25.0112h-243.5072a26.6752 26.6752 0 0 1-26.7264-24.9344l-5.12-81.6896z" fill="#FFFFFF" p-id="6433"></path><path d="M633.7536 927.4112h-243.5072a42.0352 42.0352 0 0 1-41.8816-39.3216L334.8992 673.28l-11.6992-186.88a15.36 15.36 0 0 1 15.36-16.2304h346.9824a15.36 15.36 0 0 1 15.36 16.2304l-25.1392 401.92a42.0352 42.0352 0 0 1-42.0096 39.0912zM365.3888 671.2832l13.4912 214.8864a11.4432 11.4432 0 0 0 11.392 10.6752h243.5072a11.4176 11.4176 0 0 0 11.392-10.6752l24.1152-385.5872H354.7136l10.6752 170.6752z" fill="#623541" p-id="6434"></path><path d="M477.056 298.5984l35.5328-165.632a26.7008 26.7008 0 0 1 26.112-21.0944h146.8416v53.3504h-125.2608l-28.5952 133.376-6.3232 13.3376h-53.4016z" fill="#FFFFFF" p-id="6435"></path><path d="M525.3376 327.2192h-53.376a15.36 15.36 0 0 1-14.2592-20.736l4.6848-12.2368 35.2768-164.48a42.2144 42.2144 0 0 1 40.96-33.28h146.8416a15.36 15.36 0 0 1 15.36 15.36v53.376a15.36 15.36 0 0 1-15.36 15.36h-112.8448l-26.0096 121.3184a14.7712 14.7712 0 0 1-1.1264 3.3536l-6.3232 13.3376a15.36 15.36 0 0 1-13.824 8.6272z m-32.2304-30.5408h22.5792l1.4336-2.9952 28.16-131.6352a15.36 15.36 0 0 1 14.9248-12.0576h110.08v-22.784h-131.584a11.4944 11.4944 0 0 0-11.1872 9.0368z" fill="#623541" p-id="6436"></path><path d="M698.88 431.9744a166.016 166.016 0 0 0-162.8416-133.376H487.936a166.016 166.016 0 0 0-162.816 133.376h373.76z" fill="#FFFFFF" p-id="6437"></path><path d="M698.88 447.2576H325.12a15.36 15.36 0 0 1-14.976-18.2784 181.76 181.76 0 0 1 177.8176-145.664h48.1024a181.76 181.76 0 0 1 177.8176 145.664 15.36 15.36 0 0 1-14.976 18.2784z m-353.92-30.5664h334.08a151.2704 151.2704 0 0 0-142.976-102.8352h-48.128a151.2704 151.2704 0 0 0-142.976 102.8352z" fill="#623541" p-id="6438"></path><path d="M311.7568 431.9744h400.4864a13.3376 13.3376 0 0 1 13.3376 13.3376v26.6752a13.3376 13.3376 0 0 1-13.3376 13.3376H311.7568a13.3376 13.3376 0 0 1-13.3376-13.3376v-26.6752a13.3376 13.3376 0 0 1 13.3376-13.3376z" fill="#FFFFFF" p-id="6439"></path><path d="M712.2432 500.608H311.7568a28.6464 28.6464 0 0 1-28.6208-28.6208V445.44a28.6464 28.6464 0 0 1 28.6208-28.6208h400.4864A28.6464 28.6464 0 0 1 740.864 445.44v26.6752a28.6464 28.6464 0 0 1-28.6208 28.4928z m-398.5664-30.5664h396.6464v-22.784H313.6768z m398.5408-22.784z" fill="#623541" p-id="6440"></path><path d="M391.8592 685.3888a120.1408 120.0384 0 1 0 240.2816 0 120.1408 120.0384 0 1 0-240.2816 0Z" fill="#FFFFFF" p-id="6441"></path><path d="M512 820.7104a135.3216 135.3216 0 1 1 135.424-135.3216 135.5264 135.5264 0 0 1-135.424 135.3216z m0-240.0768a104.7552 104.7552 0 1 0 104.96 104.7808 104.96 104.96 0 0 0-104.96-104.7808z" fill="#623541" p-id="6442"></path><path d="M498.6624 805.4272h173.5424A26.6752 26.6752 0 0 0 698.88 778.752v-80.0256a26.6752 26.6752 0 0 0-26.7008-26.6752h-106.7776L512 725.4016l-13.3376 13.3376z" fill="#FFFFFF" p-id="6443"></path><path d="M672.1792 820.7104h-173.5424a15.36 15.36 0 0 1-15.36-15.36v-66.6112a15.36 15.36 0 0 1 4.48-10.8032l66.7392-66.56a15.36 15.36 0 0 1 10.8032-4.48h106.8032A42.0096 42.0096 0 0 1 714.24 698.7264v80.0256a42.0096 42.0096 0 0 1-42.0608 41.9584z m-158.2592-30.5408h158.2592a11.4176 11.4176 0 0 0 11.3408-11.4176v-80.0256a11.4176 11.4176 0 0 0-11.4176-11.392h-100.3776L513.92 744.96z" fill="#623541" p-id="6444"></path><path d="M578.7392 805.4272l-120.1408-133.376h-106.7776A26.6752 26.6752 0 0 0 325.12 698.7264v80.0256a26.6752 26.6752 0 0 0 26.7008 26.6752z" fill="#FFFFFF" p-id="6445"></path><path d="M578.7392 820.7104h-226.944A42.0096 42.0096 0 0 1 309.76 778.752v-80.0256a42.0096 42.0096 0 0 1 41.984-41.9584h106.8032a15.36 15.36 0 0 1 11.3408 5.12l120.1408 133.376a15.36 15.36 0 0 1-11.3408 25.6z m-226.944-133.376a11.4176 11.4176 0 0 0-11.4176 11.392v80.0256a11.4176 11.4176 0 0 0 11.4176 11.392h192.6144l-92.6208-102.8352z" fill="#623541" p-id="6446"></path></svg>