<?xml version="1.0" standalone="no"?><!DOCTYPE svg PUBLIC "-//W3C//DTD SVG 1.1//EN" "http://www.w3.org/Graphics/SVG/1.1/DTD/svg11.dtd"><svg t="1558852202418" class="icon" style="" viewBox="0 0 1024 1024" version="1.1" xmlns="http://www.w3.org/2000/svg" p-id="10761" xmlns:xlink="http://www.w3.org/1999/xlink" width="200" height="200"><defs><style type="text/css"></style></defs><path d="M560.859289 489.717508c57.401338-23.620977 98.617042-87.47426 98.617042-162.737408 0-95.348602-66.028832-172.640965-147.46354-172.640965-81.46029 0-147.512658 77.292364-147.512658 172.640965 0 75.263148 41.240263 139.116431 98.641601 162.737408-182.483124 19.332301-323.434344 144.900158-323.434344 297.297057 0 0.169869 0.048095 0.340761 0.048095 0.51063l-0.048095 0 0 17.423835 744.051053 0 0-10.254551c0.218988-2.552126 0.534166-5.079692 0.534166-7.679913C884.29261 634.617665 743.317854 509.049808 560.859289 489.717508zM382.459157 326.980099c0-83.756589 58.009182-151.620209 129.553635-151.620209 71.544453 0 129.504516 67.862597 129.504516 151.620209 0 83.756589-57.960063 151.619186-129.504516 151.619186C440.467315 478.599286 382.459157 410.736689 382.459157 326.980099zM861.594655 787.525194 162.380786 787.525194c0-0.169869-0.023536-0.340761-0.023536-0.51063 0-155.702178 156.527986-281.925974 349.655542-281.925974 193.101973 0 349.630982 126.223796 349.630982 281.925974C861.643774 787.184433 861.619214 787.355325 861.594655 787.525194z" p-id="10762"></path></svg>