<?xml version="1.0" standalone="no"?><!DOCTYPE svg PUBLIC "-//W3C//DTD SVG 1.1//EN" "http://www.w3.org/Graphics/SVG/1.1/DTD/svg11.dtd"><svg t="1558852212745" class="icon" style="" viewBox="0 0 1024 1024" version="1.1" xmlns="http://www.w3.org/2000/svg" p-id="10876" xmlns:xlink="http://www.w3.org/1999/xlink" width="200" height="200"><defs><style type="text/css"></style></defs><path d="M352.2 129.2l0.1 0.1v191.1l-0.1 0.1H161.1l-0.1-0.1V129.3l0.1-0.1h191.1m0.1-64H161c-35.2 0-64 28.8-64 64v191.3c0 35.2 28.8 64 64 64h191.3c35.2 0 64-28.8 64-64V129.2c0-35.2-28.8-64-64-64zM863.6 129.2l0.1 0.1v191.1l-0.1 0.1H672.5l-0.1-0.1V129.3l0.1-0.1h191.1m0.2-64H672.4c-35.2 0-64 28.8-64 64v191.3c0 35.2 28.8 64 64 64h191.3c35.2 0 64-28.8 64-64V129.2c0.1-35.2-28.7-64-63.9-64zM863.6 705.1l0.1 0.1v191.1l-0.1 0.1H672.5l-0.1-0.1V705.2l0.1-0.1h191.1m0.2-64H672.4c-35.2 0-64 28.8-64 64v191.3c0 35.2 28.8 64 64 64h191.3c35.2 0 64-28.8 64-64V705.1c0.1-35.2-28.7-64-63.9-64zM352.4 705.1l0.1 0.1v191.1l-0.1 0.1H161.3l-0.1-0.1V705.2l0.1-0.1h191.1m0.2-64H161.2c-35.2 0-64 28.8-64 64v191.3c0 35.2 28.8 64 64 64h191.3c35.2 0 64-28.8 64-64V705.1c0.1-35.2-28.7-64-63.9-64z" p-id="10877"></path><path d="M254.9 699.5c-17.7 0-32-14.3-32-32V353.8c0-17.7 14.3-32 32-32s32 14.3 32 32v313.7c0 17.7-14.3 32-32 32zM639.1 832.7h-253c-17.7 0-32-14.3-32-32s14.3-32 32-32h253c17.7 0 32 14.3 32 32s-14.3 32-32 32zM767.4 701.3c-17.7 0-32-14.3-32-32v-315c0-17.7 14.3-32 32-32s32 14.3 32 32v314.9c0 17.7-14.3 32.1-32 32.1zM639.1 256.8h-254c-17.7 0-32-14.3-32-32s14.3-32 32-32h254c17.7 0 32 14.3 32 32s-14.3 32-32 32z" p-id="10878"></path></svg>