<?xml version="1.0" standalone="no"?><!DOCTYPE svg PUBLIC "-//W3C//DTD SVG 1.1//EN" "http://www.w3.org/Graphics/SVG/1.1/DTD/svg11.dtd"><svg t="1558852183527" class="icon" style="" viewBox="0 0 1024 1024" version="1.1" xmlns="http://www.w3.org/2000/svg" p-id="10407" xmlns:xlink="http://www.w3.org/1999/xlink" width="200" height="200"><defs><style type="text/css"></style></defs><path d="M512 0c-20.897959 0-37.151927 16.253968-37.151927 37.151927v85.913833c0 20.897959 16.253968 37.151927 37.151927 37.151927 20.897959 0 37.151927-16.253968 37.151927-37.151927V37.151927C549.151927 16.253968 532.897959 0 512 0zM279.800454 99.845805c-11.609977-16.253968-34.829932-20.897959-51.083901-6.965986-16.253968 11.609977-18.575964 34.829932-6.965986 51.0839l51.0839 69.659864c6.965986 9.287982 18.575964 16.253968 30.185941 16.253968 6.965986 0 13.931973-2.321995 20.897959-6.965986 13.931973-13.931973 18.575964-37.151927 6.965987-53.405896l-51.0839-69.659864zM182.276644 334.367347l-81.269841-25.54195c-18.575964-6.965986-39.473923 4.643991-46.43991 23.219954-6.965986 18.575964 4.643991 39.473923 23.219955 46.43991l81.269841 25.54195c4.643991 2.321995 6.965986 2.321995 11.609978 2.321995 16.253968 0 30.185941-9.287982 34.829932-25.54195 6.965986-18.575964-4.643991-39.473923-23.219955-46.439909zM946.213152 582.820862L864.943311 557.278912c-18.575964-6.965986-39.473923 4.643991-46.43991 23.219954-6.965986 18.575964 4.643991 39.473923 23.219955 46.43991l81.269841 25.54195c4.643991 2.321995 6.965986 2.321995 11.609978 2.321995 16.253968 0 30.185941-9.287982 34.829932-25.54195 6.965986-18.575964-4.643991-39.473923-23.219955-46.439909zM159.056689 557.278912l-81.269841 25.54195c-18.575964 6.965986-30.185941 27.863946-23.219955 46.439909 4.643991 16.253968 18.575964 25.54195 34.829932 25.54195 4.643991 0 6.965986 0 11.609978-2.321995L182.276644 626.938776c18.575964-6.965986 30.185941-27.863946 23.219955-46.43991-6.965986-18.575964-27.863946-30.185941-46.43991-23.219954zM853.333333 406.349206c4.643991 0 6.965986 0 11.609978-2.321995l81.269841-25.54195c18.575964-6.965986 30.185941-27.863946 23.219955-46.43991-6.965986-18.575964-27.863946-30.185941-46.43991-23.219954l-81.269841 25.54195c-18.575964 6.965986-30.185941 27.863946-23.219955 46.439909 4.643991 16.253968 18.575964 25.54195 34.829932 25.54195zM795.283447 92.879819c-16.253968-11.609977-39.473923-9.287982-51.083901 9.287981l-51.0839 69.659864c-11.609977 13.931973-6.965986 37.151927 9.287982 48.761905 6.965986 4.643991 13.931973 6.965986 20.897959 6.965987 11.609977 0 23.219955-4.643991 30.185941-16.253969l51.083901-69.659864c9.287982-13.931973 6.965986-37.151927-9.287982-48.761904z" fill="#FFAE00" p-id="10408"></path><path d="M512 204.335601c-148.60771 0-269.351474 120.743764-269.351474 269.351474 0 60.371882 20.897959 118.421769 58.049887 167.183673 27.863946 34.829932 55.727891 74.303855 76.62585 113.777778v157.895692c0 13.931973 11.609977 25.54195 25.54195 25.54195h30.185941c2.321995 37.151927 32.507937 67.337868 69.659864 67.337868h16.253968c37.151927 0 67.337868-30.185941 69.659864-67.337868h30.185941c13.931973 0 25.54195-11.609977 25.54195-25.54195v-157.895692c23.219955-39.473923 48.761905-76.62585 76.625851-113.777778 37.151927-48.761905 58.049887-104.489796 58.049886-167.183673C781.351474 325.079365 660.60771 204.335601 512 204.335601z m81.269841 680.344671h-160.217687v-39.473923h160.217687v39.473923z m0-78.947846h-160.217687V766.258503h160.217687v39.473923z" fill="#FFDA00" p-id="10409"></path><path d="M416.798186 900.93424h192.725624v-69.659864h-192.725624v69.659864z m30.185941-39.473923h130.031746v6.965987h-130.031746v-6.965987z" fill="#FFAE00" p-id="10410"></path><path d="M512 190.403628c-157.895692 0-285.605442 127.709751-285.605442 285.605442 0 65.015873 20.897959 125.387755 60.371882 176.471656 27.863946 34.829932 53.405896 71.981859 74.303855 109.133786v153.251701c0 23.219955 18.575964 41.795918 41.795918 41.795919h16.253968c9.287982 39.473923 41.795918 67.337868 83.591837 67.337868h16.253968c41.795918 0 74.303855-27.863946 83.591837-67.337868h16.253968c23.219955 0 41.795918-18.575964 41.795919-41.795919v-153.251701c23.219955-37.151927 46.439909-74.303855 74.303855-109.133786 39.473923-51.0839 60.371882-111.455782 60.371882-176.471656 2.321995-157.895692-125.387755-285.605442-283.283447-285.605442z m199.69161 441.179138c-27.863946 37.151927-55.727891 74.303855-78.947846 116.099774l-2.321995 4.643991v162.539682c0 6.965986-4.643991 11.609977-11.609978 11.609977h-44.117913v13.931973c-2.321995 30.185941-25.54195 51.0839-53.405896 51.0839h-16.253968c-27.863946 0-53.405896-23.219955-53.405896-51.0839v-13.931973h-44.117914c-6.965986 0-11.609977-4.643991-11.609977-11.609977v-162.539682l-2.321996-4.643991c-23.219955-39.473923-51.0839-78.947846-78.947846-116.099774-34.829932-44.117914-53.405896-99.845805-53.405895-155.573696 0-139.319728 113.777778-253.097506 253.097505-253.097505S767.419501 336.689342 767.419501 476.00907c-2.321995 55.727891-20.897959 109.133787-55.727891 155.573696z" fill="#FFAE00" p-id="10411"></path><path d="M621.133787 448.145125L512 559.600907l-109.133787-109.133787c-6.965986-6.965986-20.897959-6.965986-27.863945 0-6.965986 6.965986-6.965986 20.897959 0 27.863946l118.421768 118.421768v155.573697h-76.62585v69.659864h192.725624v-69.659864h-76.625851v-155.573697l118.421769-118.421768c6.965986-6.965986 6.965986-20.897959 0-27.863946-9.287982-9.287982-20.897959-9.287982-30.185941-2.321995z m-44.117914 343.655329h-130.031746v-6.965987h130.031746v6.965987z" fill="#FFAE00" p-id="10412"></path><path d="M421.442177 276.31746c-4.643991-4.643991-16.253968-4.643991-20.897959 0l-53.405896 53.405896c-4.643991 4.643991-4.643991 16.253968 0 20.897959 4.643991 4.643991 16.253968 4.643991 20.897959 0l53.405896-53.405895c4.643991-6.965986 4.643991-16.253968 0-20.89796z" fill="#FCFCFF" p-id="10413"></path><path d="M323.918367 373.84127m-13.931972 0a13.931973 13.931973 0 1 0 27.863945 0 13.931973 13.931973 0 1 0-27.863945 0Z" fill="#FCFCFF" p-id="10414"></path></svg>