<?xml version="1.0" standalone="no"?><!DOCTYPE svg PUBLIC "-//W3C//DTD SVG 1.1//EN" "http://www.w3.org/Graphics/SVG/1.1/DTD/svg11.dtd"><svg t="1558852178631" class="icon" style="" viewBox="0 0 1024 1024" version="1.1" xmlns="http://www.w3.org/2000/svg" p-id="10292" xmlns:xlink="http://www.w3.org/1999/xlink" width="200" height="200"><defs><style type="text/css"></style></defs><path d="M341.333333 0H136.533333a136.533333 136.533333 0 0 0-136.533333 136.533333v204.8a136.533333 136.533333 0 0 0 136.533333 136.533334h204.8a136.533333 136.533333 0 0 0 136.533334-136.533334V136.533333a136.533333 136.533333 0 0 0-136.533334-136.533333z m68.266667 341.333333a68.266667 68.266667 0 0 1-68.266667 68.266667H136.533333a68.266667 68.266667 0 0 1-68.266666-68.266667V136.533333a68.266667 68.266667 0 0 1 68.266666-68.266666h204.8a68.266667 68.266667 0 0 1 68.266667 68.266666zM887.466667 0h-204.8a136.533333 136.533333 0 0 0-136.533334 136.533333v204.8a136.533333 136.533333 0 0 0 136.533334 136.533334h204.8a136.533333 136.533333 0 0 0 136.533333-136.533334V136.533333a136.533333 136.533333 0 0 0-136.533333-136.533333z m68.266666 341.333333a68.266667 68.266667 0 0 1-68.266666 68.266667h-204.8a68.266667 68.266667 0 0 1-68.266667-68.266667V136.533333a68.266667 68.266667 0 0 1 68.266667-68.266666h204.8a68.266667 68.266667 0 0 1 68.266666 68.266666zM341.333333 546.133333H136.533333a136.533333 136.533333 0 0 0-136.533333 136.533334v204.8a136.533333 136.533333 0 0 0 136.533333 136.533333h204.8a136.533333 136.533333 0 0 0 136.533334-136.533333v-204.8a136.533333 136.533333 0 0 0-136.533334-136.533334z m68.266667 341.333334a68.266667 68.266667 0 0 1-68.266667 68.266666H136.533333a68.266667 68.266667 0 0 1-68.266666-68.266666v-204.8a68.266667 68.266667 0 0 1 68.266666-68.266667h204.8a68.266667 68.266667 0 0 1 68.266667 68.266667zM887.466667 546.133333h-204.8a136.533333 136.533333 0 0 0-136.533334 136.533334v204.8a136.533333 136.533333 0 0 0 136.533334 136.533333h204.8a136.533333 136.533333 0 0 0 136.533333-136.533333v-204.8a136.533333 136.533333 0 0 0-136.533333-136.533334z m68.266666 341.333334a68.266667 68.266667 0 0 1-68.266666 68.266666h-204.8a68.266667 68.266667 0 0 1-68.266667-68.266666v-204.8a68.266667 68.266667 0 0 1 68.266667-68.266667h204.8a68.266667 68.266667 0 0 1 68.266666 68.266667z" fill="" p-id="10293"></path></svg>